<svg xmlns="http://www.w3.org/2000/svg" id="Layer_1" viewBox="0 0 150 150"><defs><style>      .cls-1 {        fill: #94c03d;      }    </style></defs><path class="cls-1" d="M81.25,40.11c.27.16.57.25.88.25.35,0,.7-.11,1-.32.55-.4.81-1.09.65-1.76l-1.67-7.11,5.53-4.77c.52-.45.71-1.16.51-1.81-.21-.65-.79-1.11-1.47-1.16l-7.28-.61-2.83-6.74c-.27-.63-.88-1.04-1.56-1.04s-1.3.41-1.56,1.04l-2.83,6.74-7.28.61c-.68.06-1.26.52-1.47,1.16-.21.65-.01,1.36.51,1.81l5.53,4.77-1.67,7.11c-.16.66.1,1.36.65,1.76s1.29.43,1.87.08l6.24-3.79,6.25,3.79ZM70.45,35.13l.98-4.19c.14-.61-.06-1.26-.54-1.67l-3.26-2.81,4.29-.36c.63-.05,1.17-.45,1.42-1.03l1.67-3.96,1.67,3.97c.25.58.79.98,1.42,1.03l4.29.36-3.26,2.81c-.48.41-.69,1.06-.54,1.67l.98,4.19-3.68-2.23c-.27-.16-.57-.25-.88-.25s-.61.08-.88.25l-3.68,2.22ZM134.67,89.34h-16.53c-.16-.42-.38-.83-.67-1.2l-2.19-2.74.53-3.46c.28-1.84-.66-3.61-2.33-4.41l-3.16-1.52-1.03-3.35c-.54-1.77-2.15-2.96-4.01-2.96h-3.51s-2.38-2.57-2.38-2.57c-1.26-1.36-3.23-1.74-4.9-.93l-3.16,1.52-3.26-1.28c-1.38-.54-2.89-.32-4.03.53-2.92-9.39,1.62-19.44,7.88-25.65,1.35-1.34,2.45-2.75,3.34-4.28h4.82c.08,0,.17,0,.25-.02,5.33-.81,9.05-5.07,9.05-10.38v-8.94c0-3.07-2.5-5.56-5.56-5.56h-4.6l.1-3.44c.01-.46-.16-.9-.48-1.23s-.76-.51-1.21-.51h-45.23c-.46,0-.89.19-1.21.51s-.49.77-.48,1.23l.1,3.44h-4.6c-3.07,0-5.56,2.5-5.56,5.56v8.94c0,5.3,3.72,9.57,9.05,10.38.08.01.17.02.25.02h4.82c.89,1.53,1.99,2.94,3.34,4.28,8.25,8.18,12.47,22.13,4.38,32.22h-1.97c-.76,0-1.42.5-1.63,1.23l-2.36,8.28h-6.71c-.93,0-1.69.76-1.69,1.69v9.47H15.34c-.93,0-1.69.76-1.69,1.69v15.46c0,.93.76,1.69,1.69,1.69h57.2l-8.44,22.17c-.24.62-.09,1.32.38,1.8.47.47,1.17.62,1.8.39l8.26-3.1,4.11,7.8c.29.56.87.9,1.5.9.03,0,.07,0,.1,0,.66-.04,1.25-.47,1.48-1.09l9.79-25.74,1.16-.56,10.01,26.3c.24.62.82,1.05,1.48,1.09.03,0,.07,0,.1,0,.63,0,1.21-.35,1.5-.9l4.11-7.8,8.26,3.1c.62.23,1.33.08,1.8-.39.47-.47.62-1.17.38-1.8l-8.44-22.17h22.78c.93,0,1.69-.76,1.69-1.69v-20.33c0-.94-.75-1.7-1.69-1.7h0ZM17.03,97.6h31.08v12.07h-31.08v-12.07ZM86.82,69.6l3.95,1.56c.44.17.93.16,1.36-.05l3.82-1.85c.34-.16.69-.1.94.18l2.88,3.12c.32.35.77.54,1.24.54h4.25c.37,0,.66.21.77.56l1.25,4.06c.14.45.46.83.89,1.03l3.83,1.84c.34.16.51.48.45.85l-.64,4.2c-.07.47.06.94.35,1.31l2.65,3.31c.23.29.25.65.04.96l-2.4,3.5c-.27.39-.36.88-.25,1.34l.95,4.14c.08.36-.06.69-.38.88l-3.68,2.12c-.41.24-.7.63-.81,1.09l-.94,4.14c-.08.36-.35.6-.73.63l-4.23.31c-.47.03-.91.27-1.2.64l-2.64,3.32c-.23.29-.58.38-.93.25l-3.95-1.56c-.44-.17-.93-.16-1.36.05l-3.82,1.85c-.34.16-.69.1-.94-.18l-2.88-3.12c-.32-.35-.77-.54-1.24-.54h-4.25c-.37,0-.66-.21-.77-.56l-1.25-4.06c-.14-.45-.46-.83-.89-1.03l-3.83-1.84c-.34-.16-.51-.48-.45-.85l.64-4.2c.07-.47-.06-.94-.35-1.31l-2.65-3.32c-.23-.29-.25-.65-.04-.96l2.4-3.51c.27-.39.36-.88.25-1.34l-.95-4.14c-.08-.36.06-.69.38-.88l3.68-2.12c.41-.24.7-.63.81-1.09l.94-4.14c.08-.36.35-.6.73-.63l4.23-.31c.47-.03.91-.27,1.2-.64l2.64-3.32c.23-.29.58-.38.93-.25h0ZM98.86,20.93c.05-.58.09-1.17.14-1.76,0-.03,0-.06,0-.09l.1-3.54h4.7c1.2,0,2.18.98,2.18,2.18v8.94c0,3.55-2.48,6.41-6.05,7.01h-3.15c.22-.63.41-1.28.58-1.95.92-3.68,1.19-7.13,1.49-10.78h0ZM50.06,33.66c-3.57-.6-6.05-3.46-6.05-7.01v-8.94c0-1.2.98-2.18,2.18-2.18h4.7l.1,3.54s0,.06,0,.09c.05.59.1,1.18.14,1.76.29,3.65.57,7.1,1.49,10.78.17.67.36,1.32.58,1.95h-3.15ZM69.91,56.88c-1.02-6.57-4.38-12.94-9.44-17.96-2.32-2.3-3.77-4.85-4.56-8.02-.85-3.41-1.12-6.72-1.39-10.23-.05-.57-.09-1.15-.14-1.73l-.25-8.59h41.74l-.25,8.59c-.05.58-.1,1.16-.14,1.73-.28,3.51-.54,6.82-1.39,10.23-.79,3.17-2.24,5.72-4.56,8.02-4.22,4.18-7.35,9.51-8.81,15-1.5,5.62-1.23,11.13.78,16.02l-.44.55-3.5.26c-1.69.12-3.1,1.23-3.65,2.8h-7.28c3.1-4.85,4.23-10.54,3.27-16.66h0ZM61.78,76.93h11.34l-.11.49-3.04,1.75c-1.41.81-2.19,2.31-2.09,3.88h-7.84l1.74-6.12ZM51.5,109.68v-23.24h17.1l.16.72-1.98,2.89c-1.05,1.53-.97,3.54.19,4.99l2.19,2.74-.53,3.46c-.28,1.84.66,3.61,2.33,4.41l3.16,1.52.3.97-.59,1.55h-22.33ZM79.9,137.24l-3.06-5.81c-.4-.75-1.29-1.1-2.09-.8l-6.15,2.3,7.8-20.49c.74.65,1.71,1.03,2.76,1.03h3.51s2.38,2.57,2.38,2.57c.66.71,1.52,1.15,2.42,1.3l-7.57,19.9ZM109.68,130.63c-.8-.3-1.7.04-2.09.8l-3.06,5.81-7.75-20.37c1.62.45,3.35-.09,4.41-1.43l2.18-2.74,3.5-.26c.38-.03.74-.1,1.08-.22l7.89,20.72-6.15-2.3ZM132.97,109.68h-22.37l-.05-.14c.04-.12.07-.23.1-.36l.77-3.42,3.04-1.75c1.61-.93,2.41-2.76,2-4.57l-.78-3.42,1.98-2.89c.09-.13.17-.27.24-.4h15.08v16.94ZM76.86,91.59c0,8.47,6.89,15.36,15.36,15.36s15.36-6.89,15.36-15.36-6.89-15.36-15.36-15.36-15.36,6.89-15.36,15.36ZM92.22,79.62c6.6,0,11.97,5.37,11.97,11.97s-5.37,11.97-11.97,11.97-11.97-5.37-11.97-11.97,5.37-11.97,11.97-11.97ZM83.9,91.26l3.16,2.73-.95,4.07c-.16.66.1,1.36.65,1.76.3.21.65.32,1,.32.3,0,.61-.08.88-.25l3.57-2.17,3.57,2.17c.58.35,1.32.32,1.87-.08s.81-1.09.65-1.76l-.95-4.07,3.16-2.73c.52-.45.71-1.16.51-1.81-.21-.65-.79-1.11-1.47-1.16l-4.16-.35-1.62-3.85c-.27-.63-.88-1.04-1.56-1.04s-1.3.41-1.56,1.04l-1.62,3.85-4.16.35c-.68.06-1.26.52-1.47,1.16-.21.65-.01,1.36.5,1.81h0ZM90.34,91.23c.63-.05,1.17-.45,1.42-1.03l.45-1.08.45,1.08c.25.58.79.98,1.42,1.03l1.17.1-.89.77c-.48.41-.69,1.06-.54,1.67l.27,1.14-1.01-.61c-.27-.16-.57-.25-.88-.25s-.61.08-.88.25l-1.01.61.27-1.14c.14-.61-.06-1.26-.54-1.67l-.89-.77,1.17-.1Z"></path></svg>