<svg xmlns="http://www.w3.org/2000/svg" xmlns:xlink="http://www.w3.org/1999/xlink" id="Layer_1" viewBox="0 0 150 150"><defs><style>      .cls-1, .cls-2 {        fill: none;      }      .cls-2 {        stroke: #94c03d;        stroke-linecap: round;        stroke-linejoin: round;        stroke-width: 3.99px;      }      .cls-3 {        clip-path: url(#clippath);      }    </style><clipPath id="clippath"><rect class="cls-1" x="6.96" y="6.96" width="136.09" height="136.09"></rect></clipPath></defs><g id="g837"><g id="g839"><g class="cls-3"><g id="g841"><g id="g847"><path id="path849" class="cls-2" d="M126.25,67.74c-1.22,3.51-1.19,7.39.08,10.89"></path></g><g id="g851"><path id="path853" class="cls-2" d="M97.46,59.48h30.77c2.21,0,4.02,1.8,4.02,4.02s-1.8,4.02-4.02,4.02h-29.45"></path></g><g id="g855"><path id="path857" class="cls-2" d="M87.31,67.51H31.35c-3.07,0-5.56,2.49-5.56,5.56s2.49,5.56,5.56,5.56h96.88c2.21,0,4.02,1.8,4.02,4.02s-1.8,4.02-4.02,4.02H31.35c-3.65,0-7.08-1.43-9.66-4.03-2.57-2.6-3.97-6.04-3.94-9.7.07-7.42,6.24-13.46,13.74-13.46h57.13"></path></g><g id="g859"><path id="path861" class="cls-2" d="M135.39,121.89c-1.27,3.5-1.3,7.38-.08,10.89"></path></g><g id="g863"><path id="path865" class="cls-2" d="M31.68,121.89h-8.3c-3.07,0-5.56,2.49-5.56,5.56s2.49,5.56,5.56,5.56h112.83c2.21,0,4.02,1.8,4.02,4.02s-1.8,4.02-4.02,4.02H23.37c-3.65,0-7.08-1.43-9.66-4.03-2.57-2.6-3.97-6.04-3.94-9.7.07-7.42,6.24-13.46,13.74-13.46h8.15"></path></g><g id="g867"><path id="path869" class="cls-2" d="M116.02,113.86h20.18c2.21,0,4.02,1.8,4.02,4.02s-1.8,4.02-4.02,4.02H41.16"></path></g><g id="g871"><path id="path873" class="cls-2" d="M41.36,113.86h64.15"></path></g><g id="g875"><path id="path877" class="cls-2" d="M14.62,105.8c1.29-3.56,1.29-7.51,0-11.07"></path></g><g id="g879"><path id="path881" class="cls-2" d="M41.36,105.82h85.27c3.07,0,5.56-2.49,5.56-5.56s-2.49-5.56-5.56-5.56H13.8c-2.21,0-4.02-1.8-4.02-4.02s1.8-4.02,4.02-4.02h112.83c3.65,0,7.08,1.43,9.66,4.03,2.57,2.6,3.97,6.04,3.94,9.7-.07,7.42-6.24,13.46-13.74,13.46"></path></g><g id="g883"><path id="path885" class="cls-2" d="M31.68,113.86H13.8c-2.21,0-4.02-1.8-4.02-4.02s1.8-4.02,4.02-4.02h17.88"></path></g><g id="g887"><path id="path889" class="cls-2" d="M37.79,59.48l6.7-22.55"></path></g><g id="g891"><path id="path893" class="cls-2" d="M105.51,36.93l6.7,22.55"></path></g><g id="g895"><path id="path897" class="cls-2" d="M38.37,17.65l-23.14,6.08c-2.84.74-2.84,4.77,0,5.51l52.89,13.89c4.51,1.18,9.24,1.18,13.74,0l52.89-13.89c2.84-.74,2.84-4.77,0-5.51l-52.89-13.89c-4.51-1.18-9.24-1.18-13.74,0l-19.67,5.17"></path></g><g id="g899"><path id="path901" class="cls-2" d="M78.83,27.35l14.21,12.89v13.46"></path></g><g id="g903"><path id="path905" class="cls-2" d="M98.78,71.01h-11.47s0-17.31,5.74-17.31,5.74,17.31,5.74,17.31Z"></path></g><g id="g907"><path id="path909" class="cls-2" d="M41.16,121.89l-9.48,4.97v-32.17h9.48v27.19Z"></path></g><g id="g911"><path id="path913" class="cls-2" d="M78.75,27.45c-2.48,1.52-5.41,1.52-7.88,0v-5.67c0-2.18,1.76-3.94,3.94-3.94s3.94,1.76,3.94,3.94v5.67Z"></path></g></g></g></g></g></svg>