<svg xmlns="http://www.w3.org/2000/svg" xmlns:xlink="http://www.w3.org/1999/xlink" id="Layer_1" viewBox="0 0 150 150"><defs><style>      .cls-1, .cls-2 {        fill: none;      }      .cls-2 {        stroke: #94c03d;        stroke-linecap: round;        stroke-linejoin: round;        stroke-width: 3.99px;      }      .cls-3 {        clip-path: url(#clippath);      }    </style><clipPath id="clippath"><rect class="cls-1" x="6.96" y="6.96" width="136.09" height="136.09"></rect></clipPath></defs><g id="g1908"><g id="g1910"><path id="path1912" class="cls-2" d="M80.93,132.51h49.06"></path></g><g id="g1914"><path id="path1916" class="cls-2" d="M124.59,115.5h-49.06"></path></g><g id="g1918"><g class="cls-3"><g id="g1920"><g id="g1926"><path id="path1928" class="cls-2" d="M16.19,130.52v6.88c0,2.02,1.64,3.65,3.65,3.65h61.08"></path></g><g id="g1930"><path id="path1932" class="cls-2" d="M44.37,86.11l-6.14,1.26c-12.83,2.63-22.04,13.91-22.04,27.01v6.74"></path></g><g id="g1934"><path id="path1936" class="cls-2" d="M118.84,107c-2.71-9.78-10.7-17.52-21.03-19.64l-6.14-1.26"></path></g><g id="g1938"><path id="path1940" class="cls-2" d="M80.21,124.01c-4.7,0-8.5,3.81-8.5,8.5s3.81,8.5,8.5,8.5h52.67c.51,0,.93-.41.93-.93,0-.29-.14-.57-.37-.74-2.1-1.55-3.46-4.03-3.46-6.84s1.36-5.29,3.46-6.84c.23-.17.37-.45.37-.74,0-.51-.41-.93-.93-.93"></path></g><g id="g1942"><path id="path1944" class="cls-2" d="M92.43,107h32.87c4.7,0,8.5,3.81,8.5,8.5s-3.81,8.5-8.5,8.5h-52.67c-.51,0-.93-.41-.93-.93,0-.29.14-.57.37-.74,2.1-1.55,3.46-4.03,3.46-6.84s-1.36-5.29-3.46-6.84c-.23-.17-.37-.45-.37-.74,0-.51.41-.93.93-.93h10.47"></path></g><g id="g1946"><path id="path1948" class="cls-2" d="M102.68,107c.51-4.17,1.44-8.28,2.78-12.27l1.28-3.82c-2.69-1.66-5.7-2.88-8.94-3.54l-6.14-1.26"></path></g><g id="g1950"><path id="path1952" class="cls-2" d="M44.37,86.11l-6.14,1.26c-3.24.66-6.25,1.88-8.94,3.54l1.28,3.82c2.16,6.43,3.26,13.17,3.26,19.95v26.37"></path></g><g id="g1954"><path id="path1956" class="cls-2" d="M55.48,97.13c.9.89,2.29,1.04,3.36.37l9.18-5.8-13.89-8.9h0s-.14-.1-.38-.27c-1.16,1.29-2.72,2.22-4.52,2.58l-4.86.99,11.11,11.02Z"></path></g><g id="g1958"><path id="path1960" class="cls-2" d="M80.56,97.13l11.11-11.02-4.86-.99c-1.79-.37-3.35-1.29-4.51-2.58l-.39.26-13.89,8.9,9.18,5.8c1.07.67,2.46.52,3.36-.37Z"></path></g><g id="g1962"><path id="path1964" class="cls-2" d="M55.9,71.46v5.48c0,2.14-.82,4.12-2.18,5.62,0,0,.02-.02.02-.02"></path></g><g id="g1966"><path id="path1968" class="cls-2" d="M82.3,82.54s.01.01.02.02c-1.36-1.5-2.18-3.48-2.18-5.62v-5.48"></path></g><g id="g1970"><path id="path1972" class="cls-2" d="M88.94,37.05l-.08-.05c-.7-.47-1.14-1.23-1.23-2.06-.47-4.35-1.86-8.33-4.45-11.43-1.25-1.49-3.38-1.9-5.12-1.02-2.99,1.51-6.37,2.37-9.95,2.37-.03,0-.06,0-.09,0-.03,0-.06,0-.09,0-3.58,0-6.96-.85-9.95-2.37-1.74-.88-3.86-.47-5.12,1.02-2.6,3.09-3.98,7.07-4.45,11.43-.09.84-.53,1.59-1.23,2.06l-.08.05c-.78.52-1.25,1.4-1.25,2.33v13.88c.18,12.04,9.99,21.75,22.08,21.75.03,0,.06,0,.09,0s.06,0,.09,0c12.09,0,21.9-9.71,22.08-21.75v-13.88c0-.94-.47-1.81-1.25-2.33Z"></path></g><g id="g1974"><path id="path1976" class="cls-2" d="M46.28,37.89h-1.77c-4.22,0-7.64,3.42-7.64,7.64,0,4.22,3.42,7.64,7.64,7.64h1.33"></path></g><g id="g1978"><path id="path1980" class="cls-2" d="M90.19,53.17h1.33c4.22,0,7.64-3.42,7.64-7.64,0-4.22-3.42-7.64-7.64-7.64h-1.77"></path></g><g id="g1982"><path id="path1984" class="cls-2" d="M95.25,38.86v-7.91c0-12.15-9.85-22-22-22h-10.48c-12.15,0-22,9.85-22,22v7.91"></path></g></g></g></g></g></svg>