<?xml version="1.0" encoding="UTF-8"?>
<svg xmlns="http://www.w3.org/2000/svg" id="Layer_2" viewBox="0 0 1492.31 502.14">
  <defs>
    <style>      .cls-1 {        fill-rule: evenodd;      }      .cls-1, .cls-2 {        fill: #8dc63f;      }      .cls-3 {        fill: none;        stroke: #6d6e71;        stroke-miterlimit: 10;        stroke-width: 7.45px;      }      .cls-4 {        fill: #58595b;      }      .cls-5 {        fill: #414042;      }    </style>
  </defs>
  <g id="Layer_1-2" data-name="Layer_1">
    <g>
      <path class="cls-1" d="M319.25,116.76c-23.77-46.99-100.32-85.88-143.56-96.58,115.52,16.66,141.12,40.86,162.48,77.91,36.02-44.28,47.62-34.55,107.29-42.61,59.44-10.51,105.9-39.71,116.01-55.48-13.2,22.37-39.03,42.39-66.9,56.44-56.96,28.55-124.02,18.08-175.33,60.32"></path>
      <path class="cls-2" d="M281.58,501.88H92.33c-50.92,0-92.33-43.21-92.33-96.35V127.76h197.97c46.09,0,83.61,39.12,83.61,87.21v286.91ZM33.48,161.57v243.96c0,34.51,26.39,62.54,58.85,62.54h155.76v-253.1c0-29.44-22.47-53.4-50.13-53.4H33.48Z"></path>
      <path class="cls-2" d="M477.5,501.88h-199V222.63c0-53.37,41.62-96.81,92.74-96.81h190.24v288.47c0,48.32-37.67,87.59-83.98,87.59M311.98,468.07h165.52c27.86,0,50.51-24.1,50.51-53.78v-254.64h-156.77c-32.68,0-59.26,28.23-59.26,62.99v245.43Z"></path>
    </g>
    <g>
      <g>
        <path class="cls-5" d="M698.22,127.4h61.46v83.01h78.89v-83.01h61.46v221.78h-61.46v-84.28h-78.89v84.28h-61.46V127.4Z"></path>
        <path class="cls-5" d="M933.29,127.4h64.95l52.91,85.86,52.91-85.86h64.95v221.78h-61.14v-127.36l-56.55,86.81h-1.27l-56.23-86.18v126.73h-60.51V127.4Z"></path>
        <path class="cls-5" d="M1278.94,125.82h59.24l94.41,223.36h-65.9l-16.16-39.6h-85.54l-15.84,39.6h-64.63l94.41-223.36ZM1332.8,262.05l-24.71-63.05-25.03,63.05h49.74Z"></path>
      </g>
      <g>
        <path class="cls-4" d="M623.43,417.35h8.77v20.88h18.77v-20.88h8.77v54.36h-8.77v-25.01h-18.77v25.01h-8.77v-54.36Z"></path>
        <path class="cls-4" d="M671.75,417.35h8.77v46.45h20.73l1.38,7.91h-30.88v-54.36Z"></path>
        <path class="cls-4" d="M711.32,417.35h8.77v46.45h20.73l1.38,7.91h-30.88v-54.36Z"></path>
        <path class="cls-4" d="M765.51,417.35h11.38l12.32,40.58h.15l12.25-40.58h11.38v54.36h-8.77v-36.31h-.15l-10.87,36.31h-7.97l-11.09-36.31h-.15v36.31h-8.48v-54.36Z"></path>
        <path class="cls-4" d="M822.17,460.26c0-8.4,4.64-12.25,16.67-12.25h5.44v-2.83c0-3.19-.8-5.37-5.44-5.37s-6.02,1.09-6.81,4.57l-8.34-1.38c1.45-7.46,5.22-10.36,15.44-10.36,10.73,0,13.63,4.57,13.63,12.68v26.38h-8.48v-4.13c-1.88,2.75-4.35,4.63-9.78,4.63-8.63,0-12.32-3.91-12.32-11.96ZM844.35,458.74v-4.05h-5.73c-6.02,0-8.12,1.3-8.12,5.15,0,4.05,1.96,5.36,7.39,5.36,4.64,0,6.45-2.32,6.45-6.45Z"></path>
        <path class="cls-4" d="M862.39,433.15h8.63v4.64c2.39-3.48,5.8-5.15,10.58-5.15,9.42,0,12.03,5.07,12.03,11.46v27.61h-8.63v-26.38c0-2.97-2.03-5.07-6.59-5.07-3.77,0-7.39,2.17-7.39,5.58v25.88h-8.63v-38.56Z"></path>
        <path class="cls-4" d="M901.44,460.26c0-8.4,4.64-12.25,16.67-12.25h5.44v-2.83c0-3.19-.8-5.37-5.44-5.37s-6.02,1.09-6.81,4.57l-8.33-1.38c1.45-7.46,5.22-10.36,15.44-10.36,10.73,0,13.63,4.57,13.63,12.68v26.38h-8.48v-4.13c-1.88,2.75-4.35,4.63-9.78,4.63-8.63,0-12.32-3.91-12.32-11.96ZM923.62,458.74v-4.05h-5.73c-6.02,0-8.12,1.3-8.12,5.15,0,4.05,1.96,5.36,7.39,5.36,4.64,0,6.45-2.32,6.45-6.45Z"></path>
        <path class="cls-4" d="M953.76,459.03c-2.75,0-3.33.58-3.33,1.95s.58,1.82,2.97,1.88l4.06.15c12.25.36,14.86,3.63,14.86,10.8v.87c0,6.09-2.97,11.52-16.82,11.52s-16.82-4.21-16.82-10.36v-.87c0-3.62,1.89-6.38,5.65-8.27-.8-1.09-1.16-2.53-1.16-4.21,0-2.39.87-4.13,2.68-5.29-4.42-2.17-5.8-6.16-5.8-10.14v-2.25c0-6.09,3.19-12.1,15.15-12.1,1.96,0,3.7.14,5.15.43h11.96v7.25h-3.63c.94,1.67,1.45,3.62,1.45,5.22v1.52c0,5.87-2.9,11.88-14.79,11.88h-1.59ZM949.34,469.83c-2.17,1.45-2.61,3.11-2.61,4.57v.87c0,2.9,1.52,4.63,8.77,4.63s8.84-1.59,8.84-4.49v-.87c0-3.19-1.09-4.21-8.26-4.49l-6.67-.22h-.07ZM962.32,446.63v-1.3c0-3.19-1.74-5.8-7.1-5.8s-6.96,2.61-6.96,5.8v1.45c0,3.56,1.6,5.95,6.96,5.95s7.1-2.54,7.1-6.09Z"></path>
        <path class="cls-4" d="M977.6,457.57v-10.29c0-8.33,4.13-14.64,15.29-14.64s15.15,6.31,15.15,15.51v6.96h-22.03v3.41c0,3.99,1.59,6.81,6.89,6.81,5.58,0,6.31-2.17,6.81-5.8l8.26,1.3c-.65,5.51-3.62,11.45-15.07,11.45s-15.29-6.53-15.29-14.72ZM999.63,448.3v-1.81c0-4.57-1.81-6.81-6.74-6.81s-6.89,2.75-6.89,6.81v1.81h13.63Z"></path>
        <path class="cls-4" d="M1016.44,433.15h8.63v4.5c2.25-3.34,5.58-5,10.29-5,6.02,0,9.21,1.96,10.58,5.43,2.54-3.69,6.16-5.43,11.52-5.43,9.42,0,11.82,5.07,11.82,11.46v27.61h-8.63v-26.38c0-2.97-1.81-5.07-6.38-5.07-3.7,0-7.1,2.17-7.1,5.58v25.88h-8.63v-26.38c0-2.97-1.81-5.07-6.38-5.07-3.63,0-7.1,2.1-7.1,5.37v26.09h-8.63v-38.56Z"></path>
        <path class="cls-4" d="M1077.3,457.57v-10.29c0-8.33,4.13-14.64,15.29-14.64s15.15,6.31,15.15,15.51v6.96h-22.03v3.41c0,3.99,1.59,6.81,6.88,6.81,5.58,0,6.31-2.17,6.81-5.8l8.26,1.3c-.65,5.51-3.62,11.45-15.08,11.45s-15.29-6.53-15.29-14.72ZM1099.33,448.3v-1.81c0-4.57-1.81-6.81-6.74-6.81s-6.88,2.75-6.88,6.81v1.81h13.63Z"></path>
        <path class="cls-4" d="M1116.14,433.15h8.63v4.64c2.39-3.48,5.8-5.15,10.58-5.15,9.42,0,12.03,5.07,12.03,11.46v27.61h-8.63v-26.38c0-2.97-2.03-5.07-6.59-5.07-3.77,0-7.39,2.17-7.39,5.58v25.88h-8.63v-38.56Z"></path>
        <path class="cls-4" d="M1159.98,459.83v-19.29h-5.95v-7.39h5.95v-12.39h8.55v12.39h9.28v7.39h-9.28v19.07c0,3.33.65,4.71,3.7,4.71h5.58v7.39h-6.52c-9.06,0-11.3-3.7-11.3-11.88Z"></path>
        <path class="cls-4" d="M1213.09,417.35h9.79l15.08,54.36h-8.77l-3.41-12.32h-15.87l-3.33,12.32h-8.55l15.07-54.36ZM1223.89,451.49l-6.01-22.25h-.07l-6.09,22.25h12.17Z"></path>
        <path class="cls-4" d="M1243.16,457.57v-10.29c0-8.33,4.06-14.64,15.36-14.64s14.21,4.79,15.08,12.4l-8.41,1.3c-.43-4.13-1.74-6.23-6.67-6.23s-6.74,2.83-6.74,6.88v11.09c0,3.99,1.74,6.88,6.74,6.88,5.44,0,6.09-2.03,6.74-5.94l7.97,1.23c-.87,6.31-3.33,12.04-14.71,12.04s-15.36-6.53-15.36-14.72Z"></path>
        <path class="cls-4" d="M1279.45,460.26c0-8.4,4.64-12.25,16.67-12.25h5.44v-2.83c0-3.19-.8-5.37-5.44-5.37s-6.01,1.09-6.81,4.57l-8.33-1.38c1.45-7.46,5.22-10.36,15.44-10.36,10.73,0,13.63,4.57,13.63,12.68v26.38h-8.48v-4.13c-1.88,2.75-4.35,4.63-9.79,4.63-8.63,0-12.32-3.91-12.32-11.96ZM1301.63,458.74v-4.05h-5.73c-6.01,0-8.12,1.3-8.12,5.15,0,4.05,1.96,5.36,7.39,5.36,4.64,0,6.45-2.32,6.45-6.45Z"></path>
        <path class="cls-4" d="M1318.08,458.01v-11.09c0-8.55,3.19-14.28,13.63-14.28,4.42,0,7.61,1.74,9.64,4.57v-22.04h8.63v56.54h-8.63v-4.06c-1.88,2.97-5.07,4.64-10,4.64-10,0-13.26-5.73-13.26-14.28ZM1341.34,458.52v-11.74c0-4.05-2.68-6.66-7.54-6.66s-7.1,2.68-7.1,6.88v11.09c0,4.27,2.25,6.88,7.1,6.88s7.46-2.39,7.54-6.45Z"></path>
        <path class="cls-4" d="M1358.51,457.57v-10.29c0-8.33,4.13-14.64,15.29-14.64s15.15,6.31,15.15,15.51v6.96h-22.03v3.41c0,3.99,1.59,6.81,6.88,6.81,5.58,0,6.31-2.17,6.81-5.8l8.26,1.3c-.65,5.51-3.62,11.45-15.08,11.45s-15.29-6.53-15.29-14.72ZM1380.54,448.3v-1.81c0-4.57-1.81-6.81-6.74-6.81s-6.88,2.75-6.88,6.81v1.81h13.63Z"></path>
        <path class="cls-4" d="M1397.34,433.15h8.63v4.5c2.25-3.34,5.58-5,10.29-5,6.02,0,9.21,1.96,10.58,5.43,2.54-3.69,6.16-5.43,11.53-5.43,9.42,0,11.81,5.07,11.81,11.46v27.61h-8.63v-26.38c0-2.97-1.81-5.07-6.38-5.07-3.7,0-7.1,2.17-7.1,5.58v25.88h-8.62v-26.38c0-2.97-1.81-5.07-6.38-5.07-3.62,0-7.1,2.1-7.1,5.37v26.09h-8.63v-38.56Z"></path>
        <path class="cls-4" d="M1468.65,471.42l-12.76-38.27h8.7l8.33,26.6h.08l8.26-26.6h8.55l-17.54,52.91h-8.55l4.93-14.64Z"></path>
      </g>
      <line class="cls-3" x1="622.74" y1="396.49" x2="1492.31" y2="396.49"></line>
      <line class="cls-3" x1="622.74" y1="498.42" x2="1492.31" y2="498.42"></line>
    </g>
  </g>
</svg>
