<svg xmlns="http://www.w3.org/2000/svg" xmlns:xlink="http://www.w3.org/1999/xlink" id="Layer_1" viewBox="0 0 150 150"><defs><style>      .cls-1, .cls-2 {        fill: none;      }      .cls-2 {        stroke: #94c03d;        stroke-linecap: round;        stroke-linejoin: round;        stroke-width: 5.32px;      }      .cls-3 {        clip-path: url(#clippath);      }    </style><clipPath id="clippath"><rect class="cls-1" x="6.96" y="6.96" width="136.09" height="136.09"></rect></clipPath></defs><g id="g5733"><g id="g5735"><g class="cls-3"><g id="g5737"><g id="g5743"><path id="path5745" class="cls-2" d="M61.61,32.24c-5.03,6.18-11.73,10.61-19.39,12.81-2.5.72-3.95,3.33-3.23,5.84.68,2.36,3.04,3.78,5.41,3.33.14-.03.29-.06.43-.1,3.89-1.12,7.59-2.71,11.03-4.72"></path></g><g id="g5747"><path id="path5749" class="cls-2" d="M75.03,61.24l5.13-14.67c1.55.24,3.1.36,4.65.36,6.99,0,13.85-2.42,19.37-7l.63-.53c1.97-1.63,2.37-4.55.81-6.58-1.64-2.12-4.7-2.45-6.75-.75l-.72.6c-1.23,1.02-2.55,1.88-3.95,2.59-5.44,2.74-11.97,1.32-16.11-3.14-2.03-2.18-4.92-3.57-8.19-3.57-5.09,0-9.54,3.44-10.82,8.36l-6.33,24.32h22.25Z"></path></g><g id="g5751"><path id="path5753" class="cls-2" d="M80.08,110.7l15.16-15.16,11.3,11.3,23.55-23.55,5.69,5.69,4.61-22.91-22.91,4.61,4.98,4.98-15.92,15.92-11.3-11.3-52.48,52.48,7.62,7.62,14.66-14.66"></path></g><g id="g5755"><path id="path5757" class="cls-2" d="M86.3,19.09c0-5.23-4.24-9.48-9.48-9.48s-9.48,4.24-9.48,9.48,4.24,9.48,9.48,9.48,9.48-4.24,9.48-9.48Z"></path></g><g id="g5759"><path id="path5761" class="cls-2" d="M35.84,105.68l-1.64,4.29c-1.21,3.17.85,6.63,4.21,7.08l.12.02c2.3.31,4.51-.85,5.54-2.9,5.26-10.42,20.77-41.1,20.77-41.1h6.3l-3.21,20.2c-.48,2.99,1.83,5.7,4.86,5.7h0c2.21,0,4.15-1.47,4.74-3.6l6.04-21.7c1.74-6.25-2.96-12.43-9.45-12.43h-2.88"></path></g><g id="g5763"><path id="path5765" class="cls-2" d="M52.78,61.24l-9.37,24.57"></path></g><g id="g5767"><path id="path5769" class="cls-2" d="M30.28,81.19l-19.64-19.64c-1.35-1.35-1.35-3.54,0-4.89l14.26-14.26c1.35-1.35,3.54-1.35,4.89,0l19.64,19.64c1.35,1.35,1.35,3.54,0,4.89l-14.26,14.26c-1.35,1.35-3.54,1.35-4.89,0Z"></path></g><g id="g5771"><path id="path5773" class="cls-2" d="M17.77,49.53l8.95,8.95"></path></g><g id="g5775"><path id="path5777" class="cls-2" d="M41.65,73.41l-8.95-8.95"></path></g><g id="g5779"><path id="path5781" class="cls-2" d="M27.13,64.87l-.81-.81c-1.43-1.43-1.43-3.74,0-5.17l3.4-3.4,5.98,5.98-3.4,3.4c-1.43,1.43-3.74,1.43-5.17,0Z"></path></g><g id="g5783"><path id="path5785" class="cls-2" d="M72.61,118.27h0"></path></g><g id="g5787"><path id="path5789" class="cls-2" d="M39.62,95.76h0"></path></g></g></g></g></g></svg>