<svg xmlns="http://www.w3.org/2000/svg" id="Layer_1" viewBox="0 0 150 150"><defs><style>      .cls-1 {        fill: #94c03d;      }    </style></defs><path class="cls-1" d="M138.68,69.82V16.93c2.46-.32,4.37-2.42,4.37-4.96,0-2.76-2.25-5.01-5.01-5.01H50.18c-2.76,0-5.01,2.25-5.01,5.01,0,2.54,1.91,4.65,4.37,4.96v13.32c-1.05.33-2.16.52-3.36.58-2.59.13-5.36-.19-8.29-.53-2.43-.28-4.93-.57-7.52-.63,2.78-.29,5.37-1.92,7.2-4.58,2.68-3.88,3.16-9.23,1.17-13.03-1.73-3.29-5.02-5.11-9.28-5.11s-7.46,1.77-9.21,4.98c-2.03,3.72-1.68,8.88.87,12.83,1.86,2.88,4.57,4.64,7.53,4.92-2.93.15-7.58,1.08-13.85,2.77-2.05.55-4.94,1.57-6.45,3.96-.75,1.19-1.14,2.65-1.31,4.9,0,.03,0,.07,0,.1-.21,8.88,0,15.86.43,24.24.2,4.01,3.36,6.91,7.51,6.91h.07v35.5c0,1.04.85,1.89,1.89,1.89h9.68c.98,0,1.8-.75,1.88-1.74l.91-11.12.91,11.12c.08.98.9,1.74,1.88,1.74h9.68c1.04,0,1.89-.85,1.89-1.89v-62.98c0-.26.2-.47.46-.49,1.9-.11,3.66-.37,5.28-.74v25.96c-2.46.32-4.37,2.42-4.37,4.96,0,2.76,2.25,5.01,5.01,5.01h42.04v6.17c-2.81.82-4.87,3.42-4.87,6.49,0,3.73,3.03,6.76,6.76,6.76s6.76-3.03,6.76-6.76c0-3.07-2.06-5.67-4.87-6.49v-6.17h42.04c2.76,0,5.01-2.25,5.01-5.01,0-2.54-1.91-4.65-4.37-4.96h0ZM97.08,92.46c0,1.64-1.34,2.98-2.98,2.98s-2.98-1.34-2.98-2.98,1.34-2.98,2.98-2.98,2.98,1.34,2.98,2.98ZM48.95,11.97c0-.67.56-1.23,1.23-1.23h87.86c.67,0,1.23.56,1.23,1.23s-.56,1.23-1.23,1.23H50.18c-.67,0-1.23-.56-1.23-1.23h0ZM24.31,22.71c-1.79-2.78-2.09-6.47-.73-8.97,1.07-1.97,3.11-3,5.89-3s4.87,1.07,5.93,3.09c1.34,2.56.95,6.39-.93,9.12-1.35,1.96-3.15,3.03-5.07,3-1.93-.03-3.78-1.21-5.09-3.23h0ZM33.95,106.17l-2.23-27.19c-.1-1.21-1.09-2.12-2.31-2.12s-2.21.93-2.31,2.12l-2.23,27.19h-6.05v-40.32h21.18v40.32h-6.05ZM44.02,40.82c-2.25.14-4.01,2.01-4.01,4.26v16.98h-21.18v-16.45c0-1.04-.85-1.89-1.89-1.89s-1.89.85-1.89,1.89v23.16h-.07c-2.1,0-3.63-1.37-3.73-3.32-.41-8.28-.63-15.18-.42-23.91.12-1.54.35-2.5.74-3.12.59-.94,2.02-1.72,4.24-2.32,6.45-1.74,11.17-2.66,13.65-2.66,2.71,0,5.4.31,8.01.61,3.08.36,6,.69,8.9.55,8.35-.41,12.55-5.94,15.55-11.29.77-1.37,2.19-.72,2.47-.58.38.19,1.55.94.9,2.3-3.71,7.76-8.85,15.05-21.26,15.79ZM68.69,26.66c1.49-3.13-.16-6.03-2.57-7.28-2.44-1.26-5.8-.96-7.5,2.08-1.71,3.04-3.41,5.25-5.3,6.75v-11.24h81.58v52.8H53.31v-27.07c8.13-3.16,12.34-9.69,15.38-16.05h0ZM138.03,76.02H50.18c-.67,0-1.23-.56-1.23-1.23s.56-1.23,1.23-1.23h87.86c.67,0,1.23.56,1.23,1.23s-.56,1.23-1.23,1.23h0ZM91.98,117.78c-.31-4.04-1.37-5.97-4.2-7.63-1.85-1.09-4.77-1.88-7.87-2.68l-4.41-1.09c.71-.64,1.37-1.39,1.96-2.23,2.84-4.12,3.35-9.81,1.24-13.83-1.83-3.49-5.32-5.41-9.83-5.41s-8,1.92-9.83,5.41c-2.11,4.02-1.6,9.71,1.24,13.83.58.85,1.24,1.59,1.96,2.23l-4.43,1.09c-3.08.79-6,1.58-7.85,2.67-2.83,1.66-3.89,3.58-4.2,7.63,0,.01,0,.03,0,.04-.37,6.75-.2,12.95.02,18.14.17,3.97,3.41,7.08,7.39,7.08h31.41c3.98,0,7.22-3.11,7.39-7.08.22-5.18.39-11.39.02-18.14,0-.01,0-.03,0-.04h0ZM62.39,92.09c1.16-2.21,3.4-3.38,6.48-3.38s5.32,1.17,6.48,3.38c1.46,2.79,1.04,6.96-1.01,9.93-1.43,2.08-3.34,3.23-5.38,3.27-.07,0-.14,0-.21,0-2.03-.04-3.94-1.19-5.37-3.27-2.05-2.96-2.47-7.14-1.01-9.93h0ZM88.19,135.8c-.08,1.94-1.67,3.46-3.61,3.46h-.89v-12.5c0-1.04-.85-1.89-1.89-1.89s-1.89.85-1.89,1.89v12.5h-22.06v-12.5c0-1.04-.85-1.89-1.89-1.89s-1.89.85-1.89,1.89v12.5h-.89c-1.94,0-3.53-1.52-3.61-3.46-.21-5.09-.39-11.17-.02-17.75.24-3.13.84-3.75,2.34-4.64,1.55-.91,4.75-1.73,6.86-2.27l6.68-1.64c1.19-.29,2.29-.44,3.4-.44.02,0,.04,0,.06,0h.02s.04,0,.06,0c1.11,0,2.21.15,3.4.44l6.66,1.64c2.12.54,5.33,1.36,6.88,2.27,1.5.88,2.1,1.51,2.34,4.64.36,6.58.19,12.66-.02,17.75h0ZM142.45,117.78c-.31-4.05-1.37-5.97-4.2-7.63-1.85-1.09-4.77-1.88-7.87-2.68l-4.41-1.09c.71-.64,1.37-1.39,1.96-2.23,2.84-4.12,3.35-9.81,1.24-13.83-1.83-3.49-5.32-5.41-9.83-5.41s-8,1.92-9.83,5.41c-2.11,4.02-1.6,9.71,1.24,13.83.58.85,1.24,1.59,1.96,2.23l-4.43,1.09c-3.08.79-6,1.58-7.85,2.67-2.83,1.66-3.89,3.58-4.2,7.63,0,.01,0,.03,0,.04-.37,6.75-.2,12.95.02,18.14.17,3.97,3.41,7.08,7.39,7.08h31.41c3.98,0,7.22-3.11,7.39-7.08.22-5.18.39-11.39.02-18.14,0-.01,0-.03,0-.04h0ZM112.85,92.09c1.16-2.21,3.4-3.38,6.48-3.38s5.32,1.17,6.48,3.38c1.46,2.79,1.04,6.96-1.01,9.93-1.43,2.08-3.34,3.23-5.38,3.27-.07,0-.14,0-.21,0-2.03-.04-3.94-1.19-5.37-3.27-2.05-2.96-2.47-7.14-1.01-9.93h0ZM138.65,135.8c-.08,1.94-1.67,3.46-3.61,3.46h-.89v-12.5c0-1.04-.85-1.89-1.89-1.89s-1.89.85-1.89,1.89v12.5h-22.06v-12.5c0-1.04-.85-1.89-1.89-1.89s-1.89.85-1.89,1.89v12.5h-.89c-1.94,0-3.53-1.52-3.61-3.46-.21-5.09-.39-11.17-.02-17.75.24-3.13.84-3.75,2.34-4.64,1.55-.91,4.75-1.73,6.86-2.27l6.68-1.64c1.19-.29,2.29-.44,3.4-.44.02,0,.04,0,.05,0h.02s.04,0,.06,0c1.11,0,2.21.15,3.4.44l6.66,1.64c2.12.54,5.33,1.36,6.88,2.27,1.5.88,2.1,1.51,2.34,4.64.36,6.58.19,12.66-.02,17.75h0ZM60.02,49.88c-.61-.85-.42-2.03.43-2.64l27.55-19.89c.44-.31.99-.43,1.51-.31.53.12.98.45,1.24.92l8.43,14.92,20.79-16.24-2.58-.03c-1.04-.01-1.88-.87-1.87-1.91.01-1.04.86-1.87,1.89-1.87h.02l7.97.09c.58,0,1.13.28,1.48.74s.47,1.06.33,1.63l-2.02,7.71c-.26,1.01-1.3,1.61-2.31,1.35-1.01-.26-1.61-1.3-1.35-2.31l.6-2.29-22.35,17.47c-.43.34-.99.47-1.53.36-.54-.11-1.01-.44-1.28-.92l-8.47-14.99-25.84,18.66c-.33.24-.72.36-1.1.36-.59,0-1.16-.27-1.53-.78h0ZM83.34,63.44c0,1.04-.85,1.89-1.89,1.89h-21.06c-1.04,0-1.89-.85-1.89-1.89s.85-1.89,1.89-1.89h21.06c1.04,0,1.89.85,1.89,1.89ZM129.71,56.15c0,1.04-.85,1.89-1.89,1.89h-28.86c-1.04,0-1.89-.85-1.89-1.89s.85-1.89,1.89-1.89h28.86c1.04,0,1.89.85,1.89,1.89ZM129.71,63.44c0,1.04-.85,1.89-1.89,1.89h-28.86c-1.04,0-1.89-.85-1.89-1.89s.85-1.89,1.89-1.89h28.86c1.04,0,1.89.85,1.89,1.89ZM58.5,56.15c0-1.04.85-1.89,1.89-1.89h21.06c1.04,0,1.89.85,1.89,1.89s-.85,1.89-1.89,1.89h-21.06c-1.04,0-1.89-.85-1.89-1.89ZM112.29,46.97h15.53c1.04,0,1.89.85,1.89,1.89s-.85,1.89-1.89,1.89h-15.53c-1.04,0-1.89-.85-1.89-1.89s.85-1.89,1.89-1.89Z"></path></svg>