<svg xmlns="http://www.w3.org/2000/svg" id="Layer_1" viewBox="0 0 150 150"><defs><style>      .cls-1 {        fill: #94c03d;      }    </style></defs><path class="cls-1" d="M14,114.89h11.73v7.04c0,.81.42,1.57,1.11,2,.38.23.8.35,1.23.35.36,0,.72-.08,1.05-.25l18.28-9.14h60.45c3.88,0,7.04-3.16,7.04-7.04V37.46c0-3.88-3.16-7.04-7.04-7.04H14c-3.88,0-7.04,3.16-7.04,7.04v37.54c0,1.3,1.05,2.35,2.35,2.35s2.35-1.05,2.35-2.35v-37.54c0-1.29,1.05-2.35,2.35-2.35h93.85c1.29,0,2.35,1.05,2.35,2.35v70.39c0,1.29-1.05,2.35-2.35,2.35h-61c-.36,0-.72.08-1.05.25l-15.37,7.69v-5.59c0-1.3-1.05-2.35-2.35-2.35h-14.08c-1.29,0-2.35-1.05-2.35-2.35v-14.08c0-1.3-1.05-2.35-2.35-2.35s-2.35,1.05-2.35,2.35v14.08c0,3.88,3.16,7.04,7.04,7.04Z"></path><path class="cls-1" d="M136,6.96h-56.31c-3.88,0-7.04,3.16-7.04,7.04v9.39c0,1.3,1.05,2.35,2.35,2.35s2.35-1.05,2.35-2.35v-9.39c0-1.29,1.05-2.35,2.35-2.35h56.31c1.29,0,2.35,1.05,2.35,2.35v37.54c0,1.29-1.05,2.35-2.35,2.35s-2.35,1.05-2.35,2.35v.9l-5.99-2.99c-.33-.16-.69-.25-1.05-.25h-4.69c-1.3,0-2.35,1.05-2.35,2.35s1.05,2.35,2.35,2.35h4.14l8.89,4.45c.33.16.69.25,1.05.25.43,0,.86-.12,1.23-.35.69-.43,1.11-1.18,1.11-2v-2.75c2.73-.97,4.69-3.58,4.69-6.64V14c0-3.88-3.16-7.04-7.04-7.04Z"></path><path class="cls-1" d="M136,86.73h-14.08c-1.3,0-2.35,1.05-2.35,2.35s1.05,2.35,2.35,2.35h14.08c1.29,0,2.35,1.05,2.35,2.35v37.54c0,1.29-1.05,2.35-2.35,2.35s-2.35,1.05-2.35,2.35v.9l-5.99-2.99c-.33-.16-.69-.25-1.05-.25h-46.93c-1.29,0-2.35-1.05-2.35-2.35v-9.39c0-1.3-1.05-2.35-2.35-2.35s-2.35,1.05-2.35,2.35v9.39c0,3.88,3.16,7.04,7.04,7.04h46.37l8.89,4.45c.33.16.69.25,1.05.25.43,0,.86-.12,1.23-.35.69-.43,1.11-1.18,1.11-2v-2.75c2.73-.97,4.69-3.58,4.69-6.64v-37.54c0-3.88-3.16-7.04-7.04-7.04Z"></path><path class="cls-1" d="M25.73,96.12h-2.35c-1.3,0-2.35,1.05-2.35,2.35s1.05,2.35,2.35,2.35h75.08c1.3,0,2.35-1.05,2.35-2.35s-1.05-2.35-2.35-2.35h-2.35v-49.27c0-1.3-1.05-2.35-2.35-2.35h-9.39c-1.3,0-2.35,1.05-2.35,2.35v49.27h-4.69v-39.89c0-1.3-1.05-2.35-2.35-2.35h-9.39c-1.3,0-2.35,1.05-2.35,2.35v39.89h-4.69v-30.5c0-1.3-1.05-2.35-2.35-2.35h-9.39c-1.3,0-2.35,1.05-2.35,2.35v30.5h-4.69v-21.12c0-1.3-1.05-2.35-2.35-2.35h-9.39c-1.3,0-2.35,1.05-2.35,2.35v21.12ZM86.73,49.19h4.69v46.93h-4.69v-46.93ZM67.96,58.58h4.69v37.54h-4.69v-37.54ZM49.19,67.96h4.69v28.16h-4.69v-28.16ZM30.42,77.35h4.69v18.77h-4.69v-18.77Z"></path><path class="cls-1" d="M28.07,49.19h18.77c1.3,0,2.35-1.05,2.35-2.35s-1.05-2.35-2.35-2.35h-18.77c-1.3,0-2.35,1.05-2.35,2.35s1.05,2.35,2.35,2.35Z"></path><path class="cls-1" d="M28.07,58.58h9.39c1.3,0,2.35-1.05,2.35-2.35s-1.05-2.35-2.35-2.35h-9.39c-1.3,0-2.35,1.05-2.35,2.35s1.05,2.35,2.35,2.35Z"></path><path class="cls-1" d="M10.96,86.04c.92-.92.92-2.4,0-3.32-.92-.92-2.4-.92-3.32,0-.92.92-.92,2.4,0,3.32s2.4.92,3.32,0Z"></path></svg>