<svg xmlns="http://www.w3.org/2000/svg" id="Layer_1" viewBox="0 0 150 150"><defs><style>      .cls-1 {        fill: #94c03d;      }      .cls-2 {        fill: none;        stroke: #94c03d;        stroke-linecap: round;        stroke-linejoin: round;        stroke-width: 3.99px;      }    </style></defs><path class="cls-1" d="M75.74,87.74c-.23.11-.48.18-.72.18s-.5-.07-.72-.18c-6.81-3.53-11.9-7.53-15.12-11.9-2.81-3.8-4.12-7.87-3.8-11.74.11-1.33.41-2.62.88-3.82h-15.88c-.88,0-1.58-.7-1.58-1.58v-13.62c0-4.64,3.87-8.44,8.73-8.71-1.54-2.06-2.35-4.84-2.35-7.56,0-4.66,3.8-8.46,8.46-8.46s8.46,3.8,8.46,8.46c0,2.72-.81,5.5-2.35,7.56,1.09.07,2.17.29,3.19.72,1.61-1.2,3.62-1.95,5.81-2.01-1.74-2.19-2.65-5.27-2.65-8.24,0-4.96,4.03-8.96,8.96-8.96s8.96,4.03,8.96,8.96c0,2.96-.9,6.04-2.65,8.24,2.19.07,4.21.81,5.82,2.01,1-.41,2.08-.66,3.17-.72-1.56-2.06-2.35-4.84-2.35-7.56,0-4.66,3.8-8.46,8.46-8.46s8.42,3.8,8.42,8.46c0,2.72-.81,5.5-2.35,7.56,4.86.25,8.73,4.07,8.73,8.71v13.62c0,.88-.7,1.58-1.58,1.58h-15.88c.48,1.2.77,2.49.88,3.83.29,3.87-1.02,7.94-3.8,11.74-3.24,4.37-8.3,8.37-15.14,11.9h0ZM101.98,39.5h-5.57s-5.57,0-5.57,0c-.45,0-.91.05-1.33.14.86,1.36,1.34,2.96,1.34,4.64v11.45c.43.43.82.88,1.18,1.36h8.89s0-8.64,0-8.64c0-.88.7-1.58,1.58-1.58s1.58.7,1.58,1.58v8.64s3.98,0,3.98,0v-12.04c.02-3.05-2.72-5.54-6.09-5.54ZM91.12,28.8c0,3.12,1.63,7.53,5.3,7.53s5.29-4.41,5.29-7.54c0-2.92-2.38-5.29-5.3-5.29s-5.29,2.38-5.29,5.3ZM69.22,26.81c0,3.42,1.81,8.24,5.79,8.24s5.79-4.82,5.79-8.24c0-3.19-2.6-5.79-5.79-5.79s-5.79,2.6-5.79,5.79h0ZM62.34,44.3v9.21c.41-.2.84-.36,1.27-.52.7-.23,1.43-.38,2.13-.48v-6.88c0-.88.7-1.58,1.58-1.58s1.58.7,1.58,1.58v7.06c1.95.45,3.73,1.54,5.18,3.21l.93,1.04.93-1.04c1.45-1.65,3.26-2.74,5.18-3.21v-7.06c0-.88.7-1.58,1.58-1.58s1.58.7,1.58,1.58v6.88c.7.07,1.4.23,2.13.47.43.14.86.32,1.27.52v-9.21c0-3.35-2.99-6.09-6.68-6.09h-11.97c-3.69,0-6.7,2.72-6.7,6.09h0ZM48.31,28.8c0,3.12,1.63,7.53,5.3,7.53s5.29-4.41,5.29-7.54c0-2.92-2.38-5.29-5.3-5.29s-5.29,2.38-5.29,5.3ZM58,57.11c.36-.48.77-.93,1.18-1.36v-11.45c0-1.7.5-3.28,1.33-4.66-.43-.09-.88-.14-1.33-.14h-5.57s-5.57,0-5.57,0c-3.37,0-6.11,2.49-6.11,5.54v12.04s3.98,0,3.98,0v-8.64c0-.88.7-1.58,1.58-1.58s1.58.7,1.58,1.58v8.64s8.92,0,8.92,0v.02ZM91.51,64.32c-.34-4.46-3.3-7.4-6.09-8.33-2.62-.88-5.2-.14-7.1,2.01l-2.1,2.4c-.29.34-.72.54-1.2.54s-.88-.2-1.2-.54l-2.1-2.4c-1.38-1.56-3.1-2.38-4.96-2.38-.7,0-1.43.11-2.15.36-2.78.93-5.75,3.87-6.09,8.33-.54,6.99,5.45,14.32,16.5,20.2,11.04-5.88,17.04-13.22,16.49-20.21h0ZM83.79,67.6v5.18c0,.88-.7,1.58-1.58,1.58h-3.03s0,3.03,0,3.03c0,.88-.7,1.58-1.58,1.58h-5.18c-.88,0-1.58-.7-1.58-1.58v-3.03s-3.03,0-3.03,0c-.88,0-1.58-.7-1.58-1.58v-5.18c0-.88.7-1.58,1.58-1.58h3.03s0-3.03,0-3.03c0-.88.7-1.58,1.58-1.58h5.18c.88,0,1.58.7,1.58,1.58v3.03s3.03,0,3.03,0c.88,0,1.58.7,1.58,1.58ZM80.62,69.19h-3.03c-.88,0-1.58-.7-1.58-1.58v-3.03s-2.01,0-2.01,0v3.03c0,.88-.7,1.58-1.58,1.58h-3.03s0,2.01,0,2.01h3.03c.88,0,1.58.7,1.58,1.58v3.03s2.01,0,2.01,0v-3.03c0-.88.7-1.58,1.58-1.58h3.03s0-2.01,0-2.01Z"></path><g><path class="cls-2" d="M13.01,52.16c-1.1-3.36.72-6.98,4.08-8.1h0c3.31-1.1,6.89.63,8.08,3.91l11.38,31.36"></path><path class="cls-2" d="M136.41,53.92l.58-1.77c1.1-3.36-.72-6.98-4.08-8.1h0c-3.31-1.1-6.89.63-8.08,3.91l-11.37,31.36"></path><path class="cls-2" d="M16.35,84.32l3,11.12c.39,1.44,1.2,2.74,2.33,3.72l14.88,12.93c1.64,1.43,2.59,3.5,2.59,5.68v11.36c0,1.66,1.35,3.01,3.01,3.01h16.84c1.66,0,3.01-1.35,3.01-3.01v-29.51c0-2.6-1.34-5.01-3.54-6.38l-20.72-12.92c-2.86-1.79-6.62-1.07-8.63,1.64h0c-2.18,2.94-1.5,7.1,1.5,9.19l14.85,10.32"></path><path class="cls-2" d="M28.33,81.95l-8.83-24.39c-.86-2.39-3.38-3.75-5.85-3.18h0c-2.77.64-4.45,3.45-3.71,6.2l4.18,15.47"></path><path class="cls-2" d="M88,106.79v-7.18c0-2.6,1.34-5.01,3.54-6.38l20.72-12.93c2.86-1.79,6.62-1.08,8.63,1.63h0c2.18,2.94,1.5,7.1-1.5,9.19l-14.85,10.32"></path><path class="cls-2" d="M121.68,81.93l8.82-24.39c.86-2.39,3.38-3.75,5.85-3.18h0c2.77.64,4.45,3.45,3.71,6.2l-9.41,34.86c-.39,1.44-1.2,2.74-2.33,3.72l-14.88,12.93c-1.64,1.43-2.59,3.5-2.59,5.68v11.36c0,1.66-1.35,3.01-3.01,3.01h-16.84c-1.66,0-3.01-1.34-3.01-3.01v-13.63"></path></g></svg>