<svg xmlns="http://www.w3.org/2000/svg" id="Layer_1" viewBox="0 0 150 150"><defs><style>      .cls-1 {        fill: #94c03d;      }    </style></defs><g id="layer1"><path id="path7342" class="cls-1" d="M25.88,8.02c-.6,0-1.28.3-1.68.76l-15.62,17.86c-1.27,1.44-.24,3.71,1.68,3.71h6.69v6.69c.07,2.91,4.4,2.91,4.47,0v-8.93c0-1.23-1-2.22-2.22-2.22h-4.02l10.71-12.24,10.73,12.24h-4.02c-1.23,0-2.24.99-2.24,2.22v6.71c0,2.98,4.47,2.98,4.47,0v-4.46h6.69c1.92,0,2.95-2.26,1.68-3.71l-15.62-17.86c-.45-.51-1.08-.76-1.68-.76ZM75,8.03c-1.3.03-2.23.99-2.23,2.22v4.46c0,1.49,1.12,2.23,2.23,2.24,1.12,0,2.23-.75,2.23-2.24v-4.46c0-1.24-.93-2.2-2.23-2.22ZM124.12,8.03c-.63,0-1.28.3-1.68.76l-15.62,17.86c-1.27,1.44-.25,3.72,1.68,3.71h6.69v6.69c-.07,3.04,4.53,3.04,4.47,0v-8.93c0-1.23-1-2.22-2.22-2.22h-4.02l10.71-12.24,10.73,12.24h-4.02c-1.23,0-2.24.99-2.25,2.22v6.71c0,2.98,4.47,2.98,4.47,0v-4.46h6.69c1.93,0,2.93-2.29,1.68-3.71l-15.62-17.86c-.45-.51-1.05-.76-1.68-.76h0ZM61.33,15.38l3.17,3.15c2.2,2.05,5.2-1.04,3.17-3.15l-3.17-3.17c-.42-.43-.96-.65-1.57-.65-2.02-.02-2.99,2.43-1.6,3.82h0ZM85.51,12.21l-3.17,3.17c-2.04,2.11.96,5.2,3.17,3.15l3.17-3.15c1.39-1.38.42-3.83-1.6-3.82-.6,0-1.15.22-1.57.65ZM50.43,48.21v3.42c-2.66,1.54-4.47,4.43-4.47,7.74,0,4.95,4.03,8.93,8.93,8.93h2.04c1.56,3.16,3.89,5.81,6.89,7.81v3.35h-.03c-.34,0-.67.08-.97.23l-8.93,4.47c-1.03.52-1.5,1.71-1.09,2.78-2.02,1.21-3.84,2.54-5.47,3.98-1.21-.94-2.5-1.78-3.89-2.48,2.95-2.85,4.74-6.81,4.74-11.23,0-8.6-6.97-15.62-15.62-15.62s-15.62,7.02-15.62,15.62c0,4.4,1.81,8.38,4.75,11.23-8.18,4.15-13.68,12.7-13.68,22.57v3.82c0,7.6,6.04,13.73,13.51,13.73h15.51v4.48c0,2.68.84,5.31,2.88,7.03,2.08,1.76,5.03,2.27,8.52,1.59,7.23-1.96,14.47-3.9,21.73-5.84l3.24,3.25c.87.88,2.29.88,3.17,0l3.24-3.25c7.19,1.96,14.39,3.88,21.67,5.84,3.59.71,6.53.14,8.57-1.58,2.04-1.73,2.89-4.35,2.89-7.03v-4.48h15.51c7.47,0,13.51-6.13,13.51-13.73v-3.82c0-9.87-5.5-18.42-13.68-22.57,2.94-2.85,4.75-6.83,4.75-11.23,0-8.6-6.97-15.62-15.62-15.62s-15.62,7.02-15.62,15.62c0,4.41,1.79,8.38,4.74,11.23-1.38.7-2.67,1.53-3.89,2.47-1.64-1.45-3.46-2.78-5.48-3.98.41-1.07-.05-2.27-1.08-2.78l-8.93-4.47c-.31-.15-.65-.23-1-.23v-3.35c2.95-1.91,5.31-4.65,6.88-7.81h2.04c4.9,0,8.93-3.99,8.93-8.93,0-3.3-1.81-6.19-4.46-7.74v-3.43c0-13.57-10.91-24.56-24.55-24.56-13.65,0-24.57,10.99-24.57,24.56h0ZM95.08,48.21v2.23s-2.25,0-2.25,0c-2.99,0-5.97-2.13-6.75-5.04-.36-1.37-1.88-2.06-3.15-1.43-2.59,1.27-5.14,2.01-7.94,2.01-2.95,0-5.37-.75-7.96-2.01-.33-.16-.7-.24-1.07-.23-.98.04-1.81.72-2.06,1.67-.79,2.95-3.78,5.04-6.76,5.04h-2.25v-2.24c0-11.17,9-20.09,20.1-20.09,11.1,0,20.1,8.92,20.08,20.09h0ZM32.59,41.51c-1.12,0-2.23.74-2.23,2.23v2.23c0,2.98,4.47,2.98,4.47,0v-2.23c0-1.49-1.12-2.23-2.23-2.23ZM130.81,41.51c-1.12,0-2.23.74-2.23,2.23v2.23c0,2.98,4.47,2.98,4.47,0v-2.23c0-1.49-1.12-2.23-2.23-2.23ZM19.19,43.74c-1.12,0-2.23.74-2.23,2.23v2.23c0,2.98,4.47,2.98,4.47,0v-2.23c0-1.49-1.12-2.23-2.23-2.23ZM117.42,43.75c-1.12,0-2.23.74-2.23,2.23v2.23c0,2.98,4.47,2.98,4.47,0v-2.23c0-1.49-1.12-2.23-2.23-2.23h0ZM67.26,48.95c2.37.9,4.72,1.5,7.74,1.5,2.44,0,5.23-.48,7.74-1.51,1.64,2.96,4.54,5.03,7.88,5.74v4.84c0,8.61-7,15.49-15.62,15.49s-15.64-6.99-15.64-15.49v-4.84c3.3-.67,6.37-2.87,7.9-5.73h0ZM25.89,50.44c-1.12,0-2.23.74-2.23,2.23v2.23c0,2.98,4.47,2.98,4.47,0v-2.23c0-1.49-1.12-2.23-2.23-2.23ZM124.12,50.44c-1.12,0-2.23.74-2.23,2.23v2.23c0,2.98,4.47,2.98,4.47,0v-2.23c0-1.49-1.12-2.23-2.23-2.23ZM54.91,59.51c0,1.49.15,2.93.46,4.33h-.47c-2.49,0-4.47-2.03-4.47-4.47s1.97-4.46,4.47-4.46v4.61ZM95.08,54.9c2.49,0,4.47,2.03,4.47,4.46s-1.98,4.46-4.47,4.46h-.47c.31-1.39.48-2.83.48-4.32v-4.61ZM32.58,66.07c6.13,0,11.18,4.96,11.18,11.15s-5.04,11.17-11.18,11.17-11.15-4.98-11.15-11.17,5.02-11.15,11.15-11.15h0ZM117.42,66.07c6.13,0,11.15,4.96,11.15,11.15s-5.01,11.17-11.15,11.17-11.18-4.98-11.18-11.17,5.05-11.15,11.18-11.15h0ZM68.3,78.33c2.04.72,4.21,1.11,6.7,1.13,2.48-.03,4.66-.41,6.7-1.13v4.67l-5.39,5.39h-2.61l-5.39-5.38v-4.68ZM63.4,84.41l6.21,6.21-3.54,3.54-7.38-7.4,4.71-2.36ZM86.6,84.41l4.71,2.36-7.38,7.4-3.55-3.54,6.21-6.21ZM55.91,90.32l8.58,8.58c.87.88,2.29.88,3.17,0l.65-.65,2.09,2.09-2.42,16.97-1.91.49c-.13-.3-.22-.61-.36-1.02-.36-1.12-.74-2.55-1.27-4-.53-1.45-1.19-2.97-2.32-4.25-1.14-1.28-2.83-2.28-4.98-2.28-3.35,0-6.69,2.89-6.69,6.71v6.69c0,.72.08,1.44.22,2.12l-.78.19c-2.91.73-1.78,5.1,1.12,4.33l16.28-4.19-1.2,8.4c-.08.6.08,1.22.45,1.7l-19.02,5.12c-2.54.49-3.93.03-4.7-.63-.76-.64-1.3-1.85-1.3-3.62v-17.88c0-11.25,4.89-19.57,14.4-24.86h0ZM94.1,90.32c9.77,5.44,14.39,13.91,14.39,24.86v17.88c0,1.78-.53,2.98-1.29,3.61-.8.67-2.17,1.13-4.71.65l-18.89-5.08.71-.19,4-1.09c.91-.24,1.69-.7,2.3-1.32,2.67-.28,5.11-1.64,6.78-3.76l1.6.41c2.88.73,3.99-3.57,1.12-4.33l-.78-.19c.15-.68.22-1.39.22-2.11v-6.69c0-3.82-3.36-6.71-6.69-6.71-3.34.03-5.08,1.71-6.16,3.4-.75,1.19-1.35,2.59-1.87,3.51-.37,0-.77.03-1.18.13l-2.12.56-1.91-13.44,2.14-2.09.6.6c.87.88,2.29.88,3.17,0l8.58-8.58ZM26.07,91.43c1.98.91,4.19,1.43,6.51,1.43s4.56-.52,6.53-1.43c1.85.66,3.55,1.58,5.1,2.72-4.8,5.7-7.16,12.79-7.16,21.03v8.93h-15.51c-5.03,0-9.05-4.13-9.05-9.27v-3.82c0-9.13,5.67-16.77,13.58-19.59ZM110.89,91.43c1.97.9,4.21,1.43,6.53,1.43s4.53-.52,6.51-1.43c7.91,2.82,13.58,10.47,13.58,19.59v3.82c0,5.13-4.02,9.27-9.05,9.27h-15.51v-8.93c0-8.36-2.43-15.42-7.16-21.03,1.55-1.14,3.25-2.06,5.09-2.72ZM73.69,92.86h2.63l2.28,2.28-3.57,3.51-3.56-3.56,2.23-2.23ZM75.6,103.94l3.74,26.09-4.33,4.32-4.33-4.32,3.73-26.09c.39.11.81.11,1.2,0h0ZM58.77,111.49c.51.57,1.03,1.6,1.47,2.8.44,1.21.8,2.56,1.22,3.85.09.26.15.46.26.77l-6.71,1.73c-.06-.32-.1-.65-.1-.99v-6.69c0-1.33,1.34-2.25,2.22-2.25.6,0,1.12.2,1.63.78h0ZM95.09,112.96v6.69c0,2.03-1.03,3.76-2.62,4.74,0-1.27-.2-2.55-.55-3.79-.54-1.92-1.41-3.77-2.7-5.21-.1-.11-.2-.25-.31-.35.63-1.25,1.08-2.24,1.54-2.96.64-1,1.28-1.35,2.41-1.35.9,0,2.22.91,2.22,2.25h0ZM84.6,117.64c.25-.07.64-.02,1.3.71.72.81,1.34,2.04,1.73,3.41.38,1.38.48,2.83.28,3.72-.17.62-.32,1.03-.74,1.14l-3.67.99-1.33-9.35,2.44-.63Z"></path></g></svg>