<svg xmlns="http://www.w3.org/2000/svg" id="Layer_1" viewBox="0 0 150 150"><defs><style>      .cls-1 {        fill: none;        stroke: #94c03d;        stroke-linecap: round;        stroke-linejoin: round;        stroke-width: 3.98px;      }    </style></defs><path class="cls-1" d="M13.14,61.19c-1.1-3.36.72-6.97,4.07-8.08h0c3.3-1.1,6.88.63,8.06,3.9l11.35,31.3"></path><path class="cls-1" d="M136.28,62.96l.58-1.77c1.1-3.36-.72-6.97-4.07-8.08h0c-3.3-1.1-6.88.63-8.06,3.9l-11.35,31.3"></path><path class="cls-1" d="M16.47,93.28l3,11.1c.39,1.44,1.2,2.73,2.32,3.71l14.85,12.9c1.64,1.43,2.58,3.49,2.58,5.67v11.34c0,1.66,1.34,3,3,3h16.81c1.66,0,3-1.34,3-3v-29.45c0-2.59-1.34-5-3.53-6.37l-20.68-12.9c-2.86-1.78-6.61-1.07-8.61,1.63h0c-2.18,2.93-1.5,7.08,1.5,9.17l14.82,10.3"></path><path class="cls-1" d="M28.42,90.92l-8.81-24.34c-.86-2.38-3.37-3.75-5.84-3.17h0c-2.76.64-4.44,3.45-3.7,6.18l4.17,15.44"></path><path class="cls-1" d="M87.97,115.72v-7.17c0-2.59,1.34-5,3.53-6.37l20.68-12.9c2.86-1.78,6.61-1.07,8.61,1.63h0c2.18,2.93,1.5,7.08-1.5,9.17l-14.82,10.3"></path><path class="cls-1" d="M121.58,90.92l8.81-24.34c.86-2.38,3.37-3.75,5.84-3.17h0c2.76.64,4.44,3.45,3.7,6.18l-9.39,34.79c-.39,1.44-1.2,2.73-2.32,3.71l-14.85,12.9c-1.64,1.43-2.58,3.49-2.58,5.67v11.34c0,1.66-1.34,3-3,3h-16.81c-1.66,0-3-1.34-3-3v-13.6"></path><path class="cls-1" d="M80.57,83.37v-10.44c0-1.26-1.02-2.28-2.28-2.28h-4.66c-.6,0-1.18-.24-1.61-.67l-4.89-4.89c-.89-.89-2.33-.89-3.22,0l-11.13,11.13"></path><circle class="cls-1" cx="75" cy="46.73" r="37.73"></circle><path class="cls-1" d="M45.11,68.87l6.11-6.11c.43-.43.67-1.01.67-1.61v-13.5c0-.6.24-1.18.67-1.61l13.12-13.12c.89-.89.89-2.33,0-3.22l-12.88-12.88"></path><path class="cls-1" d="M88.94,33.88c-1.26,0-2.28,1.02-2.28,2.28v9.4c0,1.26,1.02,2.28,2.28,2.28h2.61c1.26,0,2.28,1.02,2.28,2.28v13.84c0,.6.24,1.18.67,1.61l7.14,7.14"></path><line class="cls-1" x1="109.95" y1="33.88" x2="98.3" y2="33.88"></line></svg>