<svg xmlns="http://www.w3.org/2000/svg" id="Layer_1" viewBox="0 0 150 150"><defs><style>      .cls-1 {        fill: #fff;      }      .cls-2 {        fill: none;        stroke: #fff;        stroke-linecap: round;        stroke-linejoin: round;        stroke-width: 3.99px;      }    </style></defs><path class="cls-1" d="M43.7,72.07h62.61c1.02,0,1.84-.82,1.84-1.84v-14.73c0-3.05-2.47-5.52-5.52-5.52h-.7c3.08-2.66,3.41-7.31.75-10.39-2.66-3.08-7.31-3.41-10.39-.75s-3.41,7.31-.75,10.39c.23.27.48.52.75.75h-.7c-.88,0-1.74.22-2.52.64-1.19-2.62-3.81-4.31-6.69-4.32h-2.22c3.59-2.84,4.19-8.05,1.35-11.64s-8.05-4.19-11.64-1.35-4.19,8.05-1.35,11.64c.4.5.85.95,1.35,1.35h-2.22c-2.88,0-5.5,1.7-6.69,4.32-.78-.41-1.64-.63-2.52-.64h-.7c3.08-2.66,3.41-7.31.75-10.39s-7.31-3.41-10.39-.75-3.41,7.31-.75,10.39c.23.27.48.52.75.75h-.7c-3.05,0-5.52,2.47-5.52,5.52v14.73c0,1.02.82,1.84,1.84,1.84ZM97.1,40.77c2.03,0,3.68,1.65,3.68,3.68s-1.65,3.68-3.68,3.68-3.68-1.65-3.68-3.68,1.65-3.68,3.68-3.68ZM89.73,55.5c0-1.02.82-1.84,1.84-1.84h11.05c1.02,0,1.84.82,1.84,1.84v12.89h-14.73v-12.89ZM75,35.24c2.54,0,4.6,2.06,4.6,4.6s-2.06,4.6-4.6,4.6-4.6-2.06-4.6-4.6,2.06-4.6,4.6-4.6ZM63.95,53.66c0-2.03,1.65-3.68,3.68-3.68h14.73c2.03,0,3.68,1.65,3.68,3.68v14.73h-22.1v-14.73ZM52.9,40.77c2.03,0,3.68,1.65,3.68,3.68s-1.65,3.68-3.68,3.68-3.68-1.65-3.68-3.68,1.65-3.68,3.68-3.68ZM45.54,55.5c0-1.02.82-1.84,1.84-1.84h11.05c1.02,0,1.84.82,1.84,1.84v12.89h-14.73v-12.89Z"></path><path class="cls-1" d="M32.65,33.96v15.26c0,.42.34.75.75.75h2.18c.42,0,.75-.34.75-.75v-13.89c0-.33.22-.63.54-.72l16.03-4.81c1.1-.33,1.85-1.34,1.85-2.49v-6.07c0-.67.81-1.01,1.29-.53l2.4,2.4c.29.29.77.29,1.07,0l1.54-1.54c.29-.29.29-.77,0-1.07l-6.3-6.3c-1.01-1.01-2.66-1.01-3.67,0l-6.3,6.3c-.29.29-.29.77,0,1.07l1.54,1.54c.29.29.77.29,1.07,0l2.4-2.4c.47-.47,1.29-.14,1.29.53v4.7c0,.33-.22.63-.54.72l-16.03,4.81c-1.1.33-1.85,1.34-1.85,2.49Z"></path><path class="cls-1" d="M76.84,25.28v-7.71c0-.67.81-1.01,1.29-.53l2.4,2.4c.29.29.77.29,1.07,0l1.54-1.54c.29-.29.29-.77,0-1.07l-6.3-6.3c-1.01-1.01-2.66-1.01-3.67,0l-6.3,6.3c-.29.29-.29.77,0,1.07l1.54,1.54c.29.29.77.29,1.07,0l2.4-2.4c.47-.47,1.29-.14,1.29.53v7.71c0,.42.34.75.75.75h2.18c.42,0,.75-.34.75-.75Z"></path><path class="cls-1" d="M103.69,23.12l1.54-1.54c.29-.29.29-.77,0-1.07l-6.3-6.3c-1.01-1.01-2.66-1.01-3.67,0l-6.3,6.3c-.29.29-.29.77,0,1.07l1.54,1.54c.29.29.77.29,1.07,0l2.4-2.4c.47-.47,1.29-.14,1.29.53v6.08c0,1.12.71,2.11,1.77,2.46l14.28,4.76c.31.1.52.39.52.71v13.95c0,.42.34.75.75.75h2.18c.42,0,.75-.34.75-.75v-15.28c0-1.12-.71-2.11-1.77-2.46l-14.28-4.76c-.31-.1-.52-.39-.52-.71v-4.76c0-.67.81-1.01,1.29-.53l2.4,2.4c.29.29.77.29,1.07,0Z"></path><path class="cls-2" d="M13.03,60.27c-1.1-3.36.72-6.98,4.08-8.1h0c3.31-1.1,6.89.63,8.08,3.91l11.37,31.35"></path><path class="cls-2" d="M136.39,62.04l.58-1.77c1.1-3.36-.72-6.98-4.08-8.1h0c-3.31-1.1-6.89.63-8.08,3.91l-11.37,31.35"></path><path class="cls-2" d="M16.36,92.42l3,11.12c.39,1.44,1.2,2.74,2.33,3.72l14.88,12.93c1.64,1.43,2.59,3.5,2.59,5.68v11.36c0,1.66,1.35,3.01,3.01,3.01h16.84c1.66,0,3.01-1.35,3.01-3.01v-29.5c0-2.59-1.34-5.01-3.54-6.38l-20.72-12.92c-2.86-1.79-6.62-1.08-8.63,1.63h0c-2.18,2.94-1.5,7.1,1.5,9.18l14.84,10.32"></path><path class="cls-2" d="M28.34,90.05l-8.83-24.38c-.86-2.39-3.38-3.75-5.85-3.18h0c-2.77.64-4.45,3.45-3.71,6.2l4.18,15.47"></path><path class="cls-2" d="M87.99,114.89v-7.18c0-2.59,1.34-5.01,3.54-6.38l20.72-12.92c2.86-1.79,6.62-1.08,8.63,1.63h0c2.18,2.94,1.5,7.1-1.5,9.18l-14.84,10.32"></path><path class="cls-2" d="M121.66,90.05l8.83-24.38c.86-2.39,3.38-3.75,5.85-3.18h0c2.77.64,4.45,3.45,3.71,6.2l-9.41,34.86c-.39,1.44-1.2,2.74-2.33,3.72l-14.88,12.93c-1.64,1.43-2.59,3.5-2.59,5.68v11.36c0,1.66-1.35,3.01-3.01,3.01h-16.84c-1.66,0-3.01-1.35-3.01-3.01v-13.62"></path></svg>