<svg xmlns="http://www.w3.org/2000/svg" id="Layer_2" viewBox="0 0 877.39 929"><defs><style>      .cls-1 {        fill-rule: evenodd;      }      .cls-1, .cls-2 {        fill: #8dc63f;      }      .cls-3 {        fill: none;        stroke: #6d6e71;        stroke-miterlimit: 10;        stroke-width: 7.51px;      }      .cls-4 {        fill: #58595b;      }      .cls-5 {        fill: #414042;      }    </style></defs><g id="Layer_1-2" data-name="Layer_1"><g><path class="cls-1" d="M474.86,116.76c-23.77-46.99-100.32-85.88-143.56-96.58,115.52,16.66,141.12,40.86,162.48,77.91,36.02-44.28,47.62-34.55,107.29-42.61,59.44-10.51,105.9-39.71,116.01-55.48-13.2,22.37-39.03,42.39-66.9,56.44-56.96,28.55-124.02,18.08-175.33,60.32"></path><path class="cls-2" d="M437.18,501.88h-189.24c-50.92,0-92.33-43.21-92.33-96.35V127.76h197.97c46.09,0,83.61,39.12,83.61,87.21v286.91ZM189.09,161.57v243.96c0,34.51,26.39,62.54,58.85,62.54h155.76v-253.1c0-29.44-22.47-53.4-50.13-53.4h-164.49Z"></path><path class="cls-2" d="M633.11,501.88h-199V222.63c0-53.37,41.62-96.81,92.74-96.81h190.24v288.47c0,48.32-37.67,87.59-83.98,87.59M467.59,468.07h165.52c27.86,0,50.51-24.1,50.51-53.78v-254.64h-156.77c-32.68,0-59.26,28.23-59.26,62.99v245.43Z"></path><g><path class="cls-5" d="M76.16,550.89h62.01v83.76h79.6v-83.76h62.02v223.77h-62.02v-85.04h-79.6v85.04h-62.01v-223.77Z"></path><path class="cls-5" d="M313.34,550.89h65.53l53.38,86.63,53.38-86.63h65.53v223.77h-61.69v-128.51l-57.06,87.59h-1.28l-56.74-86.95v127.87h-61.06v-223.77Z"></path><path class="cls-5" d="M662.1,549.29h59.78l95.26,225.37h-66.49l-16.3-39.96h-86.31l-15.98,39.96h-65.21l95.26-225.37ZM716.44,686.75l-24.93-63.62-25.25,63.62h50.19Z"></path></g><g><path class="cls-4" d="M.69,843.44h8.85v21.06h18.94v-21.06h8.85v54.85h-8.85v-25.23H9.54v25.23H.69v-54.85Z"></path><path class="cls-4" d="M49.46,843.44h8.85v46.87h20.91l1.39,7.98h-31.15v-54.85Z"></path><path class="cls-4" d="M89.37,843.44h8.85v46.87h20.91l1.39,7.98h-31.15v-54.85Z"></path><path class="cls-4" d="M144.06,843.44h11.48l12.43,40.95h.15l12.36-40.95h11.48v54.85h-8.85v-36.64h-.15l-10.97,36.64h-8.04l-11.19-36.64h-.15v36.64h-8.56v-54.85Z"></path><path class="cls-4" d="M201.23,886.73c0-8.48,4.68-12.36,16.82-12.36h5.48v-2.85c0-3.22-.8-5.41-5.48-5.41s-6.07,1.09-6.87,4.61l-8.41-1.39c1.46-7.53,5.27-10.46,15.58-10.46,10.82,0,13.75,4.61,13.75,12.8v26.62h-8.56v-4.17c-1.9,2.78-4.39,4.68-9.87,4.68-8.7,0-12.43-3.95-12.43-12.07ZM223.61,885.2v-4.09h-5.78c-6.07,0-8.19,1.32-8.19,5.19,0,4.09,1.98,5.41,7.46,5.41,4.68,0,6.51-2.34,6.51-6.51Z"></path><path class="cls-4" d="M241.81,859.38h8.7v4.68c2.41-3.51,5.85-5.19,10.68-5.19,9.51,0,12.14,5.12,12.14,11.56v27.86h-8.7v-26.62c0-3-2.05-5.12-6.65-5.12-3.8,0-7.46,2.19-7.46,5.63v26.11h-8.7v-38.91Z"></path><path class="cls-4" d="M281.21,886.73c0-8.48,4.68-12.36,16.82-12.36h5.48v-2.85c0-3.22-.8-5.41-5.48-5.41s-6.07,1.09-6.87,4.61l-8.41-1.39c1.46-7.53,5.27-10.46,15.58-10.46,10.82,0,13.75,4.61,13.75,12.8v26.62h-8.56v-4.17c-1.9,2.78-4.39,4.68-9.87,4.68-8.7,0-12.43-3.95-12.43-12.07ZM303.59,885.2v-4.09h-5.78c-6.07,0-8.19,1.32-8.19,5.19,0,4.09,1.98,5.41,7.46,5.41,4.68,0,6.51-2.34,6.51-6.51Z"></path><path class="cls-4" d="M334,885.5c-2.78,0-3.36.59-3.36,1.97s.59,1.83,3,1.9l4.09.15c12.36.37,14.99,3.66,14.99,10.9v.87c0,6.14-3,11.63-16.97,11.63s-16.97-4.24-16.97-10.46v-.87c0-3.66,1.9-6.44,5.7-8.34-.8-1.09-1.17-2.55-1.17-4.24,0-2.41.88-4.17,2.71-5.34-4.46-2.19-5.85-6.21-5.85-10.23v-2.27c0-6.14,3.22-12.21,15.28-12.21,1.98,0,3.73.14,5.19.43h12.07v7.32h-3.66c.95,1.68,1.46,3.66,1.46,5.27v1.54c0,5.92-2.93,11.99-14.92,11.99h-1.61ZM329.54,896.39c-2.19,1.46-2.63,3.14-2.63,4.61v.87c0,2.93,1.54,4.68,8.85,4.68s8.92-1.6,8.92-4.53v-.87c0-3.22-1.1-4.24-8.34-4.53l-6.73-.22h-.07ZM342.63,872.99v-1.32c0-3.22-1.75-5.85-7.17-5.85s-7.02,2.63-7.02,5.85v1.46c0,3.59,1.61,6,7.02,6s7.17-2.56,7.17-6.14Z"></path><path class="cls-4" d="M358.05,884.03v-10.38c0-8.41,4.17-14.77,15.43-14.77s15.28,6.36,15.28,15.65v7.02h-22.23v3.44c0,4.02,1.61,6.87,6.95,6.87,5.63,0,6.36-2.19,6.87-5.85l8.34,1.32c-.66,5.56-3.66,11.56-15.21,11.56s-15.43-6.59-15.43-14.85ZM380.28,874.67v-1.83c0-4.61-1.83-6.87-6.8-6.87s-6.95,2.78-6.95,6.87v1.83h13.75Z"></path><path class="cls-4" d="M397.24,859.38h8.7v4.54c2.27-3.37,5.63-5.05,10.38-5.05,6.07,0,9.29,1.98,10.68,5.48,2.56-3.73,6.22-5.48,11.63-5.48,9.51,0,11.92,5.12,11.92,11.56v27.86h-8.7v-26.62c0-3-1.83-5.12-6.43-5.12-3.73,0-7.17,2.19-7.17,5.63v26.11h-8.7v-26.62c0-3-1.83-5.12-6.43-5.12-3.66,0-7.17,2.12-7.17,5.41v26.32h-8.7v-38.91Z"></path><path class="cls-4" d="M458.65,884.03v-10.38c0-8.41,4.17-14.77,15.43-14.77s15.28,6.36,15.28,15.65v7.02h-22.23v3.44c0,4.02,1.61,6.87,6.95,6.87,5.63,0,6.36-2.19,6.87-5.85l8.34,1.32c-.66,5.56-3.66,11.56-15.21,11.56s-15.43-6.59-15.43-14.85ZM480.88,874.67v-1.83c0-4.61-1.83-6.87-6.8-6.87s-6.95,2.78-6.95,6.87v1.83h13.75Z"></path><path class="cls-4" d="M497.84,859.38h8.7v4.68c2.41-3.51,5.85-5.19,10.68-5.19,9.51,0,12.14,5.12,12.14,11.56v27.86h-8.7v-26.62c0-3-2.05-5.12-6.65-5.12-3.8,0-7.46,2.19-7.46,5.63v26.11h-8.7v-38.91Z"></path><path class="cls-4" d="M542.07,886.3v-19.46h-6v-7.46h6v-12.5h8.63v12.5h9.36v7.46h-9.36v19.24c0,3.36.66,4.75,3.73,4.75h5.63v7.46h-6.58c-9.14,0-11.41-3.73-11.41-11.99Z"></path><path class="cls-4" d="M595.66,843.44h9.87l15.21,54.85h-8.85l-3.44-12.43h-16.01l-3.36,12.43h-8.63l15.21-54.85ZM606.56,877.89l-6.07-22.45h-.07l-6.14,22.45h12.28Z"></path><path class="cls-4" d="M626,884.03v-10.38c0-8.41,4.09-14.77,15.5-14.77s14.33,4.83,15.21,12.51l-8.48,1.32c-.44-4.17-1.76-6.29-6.73-6.29s-6.8,2.85-6.8,6.94v11.19c0,4.02,1.75,6.94,6.8,6.94,5.49,0,6.14-2.05,6.8-5.99l8.05,1.24c-.88,6.36-3.36,12.14-14.85,12.14s-15.5-6.59-15.5-14.85Z"></path><path class="cls-4" d="M662.62,886.73c0-8.48,4.68-12.36,16.82-12.36h5.49v-2.85c0-3.22-.81-5.41-5.49-5.41s-6.07,1.09-6.87,4.61l-8.41-1.39c1.46-7.53,5.27-10.46,15.58-10.46,10.82,0,13.75,4.61,13.75,12.8v26.62h-8.55v-4.17c-1.9,2.78-4.39,4.68-9.87,4.68-8.7,0-12.43-3.95-12.43-12.07ZM685,885.2v-4.09h-5.78c-6.07,0-8.19,1.32-8.19,5.19,0,4.09,1.97,5.41,7.46,5.41,4.68,0,6.51-2.34,6.51-6.51Z"></path><path class="cls-4" d="M701.59,884.47v-11.19c0-8.63,3.22-14.41,13.75-14.41,4.46,0,7.68,1.76,9.73,4.61v-22.23h8.7v57.05h-8.7v-4.1c-1.9,3-5.12,4.68-10.09,4.68-10.09,0-13.38-5.78-13.38-14.41ZM725.06,884.98v-11.85c0-4.09-2.71-6.72-7.6-6.72s-7.17,2.7-7.17,6.94v11.19c0,4.31,2.27,6.94,7.17,6.94s7.53-2.41,7.6-6.51Z"></path><path class="cls-4" d="M742.39,884.03v-10.38c0-8.41,4.17-14.77,15.43-14.77s15.28,6.36,15.28,15.65v7.02h-22.23v3.44c0,4.02,1.61,6.87,6.95,6.87,5.63,0,6.36-2.19,6.87-5.85l8.34,1.32c-.66,5.56-3.66,11.56-15.21,11.56s-15.43-6.59-15.43-14.85ZM764.62,874.67v-1.83c0-4.61-1.83-6.87-6.8-6.87s-6.95,2.78-6.95,6.87v1.83h13.75Z"></path><path class="cls-4" d="M781.57,859.38h8.7v4.54c2.27-3.37,5.63-5.05,10.38-5.05,6.07,0,9.29,1.98,10.68,5.48,2.56-3.73,6.22-5.48,11.63-5.48,9.5,0,11.92,5.12,11.92,11.56v27.86h-8.7v-26.62c0-3-1.83-5.12-6.44-5.12-3.73,0-7.17,2.19-7.17,5.63v26.11h-8.7v-26.62c0-3-1.83-5.12-6.44-5.12-3.66,0-7.17,2.12-7.17,5.41v26.32h-8.7v-38.91Z"></path><path class="cls-4" d="M853.51,898l-12.87-38.61h8.78l8.41,26.84h.08l8.33-26.84h8.63l-17.7,53.39h-8.63l4.97-14.77Z"></path></g><line class="cls-3" y1="822.4" x2="877.39" y2="822.4"></line><line class="cls-3" y1="925.24" x2="877.39" y2="925.24"></line></g></g></svg>